<?xml version="1.0" encoding="UTF-8" standalone="no"?>
<svg
   version="1.1"
   width="606.85425"
   height="274.2374"
   viewBox="0 0 606.85425 274.2374"
   overflow="visible"
   enable-background="new 0 0 807.203 435.676"
   xml:space="preserve"
   id="svg28"
   xmlns="http://www.w3.org/2000/svg"
   xmlns:svg="http://www.w3.org/2000/svg"><defs
   id="defs32">
	
		<linearGradient
   id="XMLID_7_"
   gradientUnits="userSpaceOnUse"
   x1="665.94232"
   y1="-618.38342"
   x2="561.01721"
   y2="-690.43475"
   gradientTransform="matrix(1,0,0,-1,-116.02263,-418.7035)">
		<stop
   offset="0"
   style="stop-color:#D94F2B"
   id="stop5" />
		<stop
   offset="1"
   style="stop-color:#F5A500"
   id="stop7" />
	</linearGradient>
	
	
	
	
	
	
		<linearGradient
   id="XMLID_8_"
   gradientUnits="userSpaceOnUse"
   x1="-39.970501"
   y1="-586.55219"
   x2="120.7576"
   y2="-586.55219"
   gradientTransform="matrix(0.982,-0.1889,-0.1889,-0.982,-26.3876,-276.9853)">
		<stop
   offset="1"
   style="stop-color:#BEB2AA"
   id="stop20" />
		<stop
   offset="1"
   style="stop-color:#FFFFFF"
   id="stop22" />
	</linearGradient>
	
</defs>

<path
   fill="url(#XMLID_7_)"
   d="m 470.86037,273.1109 c 5.16,-0.692 13.602,-2.271 18.761,-3.507 11.932,-2.861 32.802,-11.753 49.559,-22.854 13.816,-9.153 24.579,-20.569 27.475,-24.689 6.554,-9.327 7.575,-10.199 8.346,-7.127 1.218,4.852 -0.571,12.222 -5.06,20.857 -2.411,4.635 -5.689,10.079 -7.288,12.097 -3.492,4.413 -2.235,3.744 6.031,-3.21 24.245,-20.394 37.785,-46.179 38.163,-72.678 0.248,-17.445 -6.202,-30.864 -18.95,-39.423 -14.119,-9.478 -30.455,-10.007 -56.958,-1.845 -5.037,1.552 -9.157,3.179 -9.157,3.618 0,0.437 0.343,0.584 0.762,0.326 1.569,-0.971 14.474,1.122 18.279,2.963 9.109,4.411 14.911,14.066 13.711,22.821 -1.01,7.368 -6.74,17.209 -14.125,24.258 -9.241,8.821 -24.521,19.015 -48.188,29.637 -4.913,2.206 -34.917,14.78 -39.384,16.774 -4.468,1.995 -1.731,2.179 2.168,2.343 4.415,0.185 21.227,-0.619 26.631,-0.907 17.529,-0.936 18.172,-0.506 13.573,3.352 -11.367,9.532 -41.663,21.902 -62.626,25.57 -9.777,1.711 -28.715,2.461 -29.464,2.496 -0.749,0.036 -2.835,-0.139 -2.835,0.291 0,1.708 25.459,8.321 36.628,9.513 7.734,0.823 25.389,0.472 33.948,-0.676 z"
   id="path10"
   style="fill:url(#XMLID_7_)" /><path
   fill="#f08500"
   d="m 18.483369,271.7259 c 5.835,-0.981 19.252,-3.161 29.816,-4.843 26.34,-4.193 61.401001,-10.252 65.339001,-11.291 5.591,-1.475 9.811,-6.553 13.538,-16.29 5.026,-13.131 5.613,-15.842 4.113,-18.988 -0.939,-1.968 -1.975,-2.709 -4.071,-2.912 -1.546,-0.152 -14.754,1.557 -29.351001,3.796 -27.685,4.246 -29.926,4.501 -29.895,3.401 0.009,-0.369 6.349,-9.515 14.085,-20.324 24.481001,-34.201 65.664001,-91.496 76.076001,-105.837998 13.055,-17.984 14.225,-20.065 14.897,-26.506 0.655,-6.258 -0.681,-8.361 -5.309,-8.361 -1.563,0 -13.093,1.579 -25.621,3.51 -12.528,1.931 -38.054,5.768 -56.726001,8.526 -18.671,2.757 -34.845,5.203 -35.941,5.435 -3.877,0.819 -8.062,5.585 -10.38,11.822 -5.166,13.894998 -6.272,21.474998 -3.569,24.461998 2.283,2.522 -0.059,2.751 47.521,-4.653 12.946,-2.015 23.730001,-3.472 23.964001,-3.238 0.234,0.235 -1.747,3.378 -4.404,6.986 -2.656001,3.606 -12.465001,17.211 -21.798001,30.233 -9.331,13.021 -30.55,42.553 -47.151,65.628 -16.602,23.076 -30.9440003,43.371 -31.8720003,45.102 -2.436,4.545 -2.297,11.915 0.269,14.306 2.415,2.249 3.304,2.253 16.4700003,0.037 z"
   id="path12" /><path
   fill-rule="evenodd"
   clip-rule="evenodd"
   fill="#2faf5a"
   d="m 161.31037,247.9529 c 7.861,-1.296 15.237,-2.944 16.39,-3.663 2.238,-1.396 4.848,-6.718 13.056,-26.615 2.837,-6.879 5.419,-12.796 5.738,-13.147 0.32,-0.352 11.81,-2.288 25.534,-4.302 13.725,-2.013 25.249,-3.842 25.607,-4.063 1.175,-0.727 1.445,0.774 2.994,16.599 1.776,18.155 2.277,19.232 8.801,18.895 2.162,-0.112 9.713,-1.181 16.78,-2.374 11.294,-1.907 13.095,-2.45 14.861,-4.481 1.105,-1.273 2.01,-2.993 2.01,-3.826 -10e-4,-1.518 -9.265,-94.242 -14.243,-142.540998 -3.401,-33.01 -3.321,-32.864 -16.796,-30.554 -4.303,0.736 -13.39,2.182 -20.197,3.211 -6.805,1.029 -13.317,2.229 -14.469,2.668 -3.912,1.488 -9.477,7.453 -12.437,13.333 -3.022,6.002 -15.91,36.110998 -33.101,77.326998 -5.327,12.775 -17.052,40.478 -26.051,61.562 -9,21.085 -16.365,38.9 -16.365,39.591 0,0.689 0.417,2.032 0.925,2.982 1.238,2.312 3.71,2.242 20.963,-0.602 z m 53.403,-87.23 c 0.24,-0.614 4.956,-11.77 10.478,-24.791 5.522,-13.021 10.848,-25.584 11.836,-27.917 0.989,-2.334 2.317,-4.244 2.955,-4.244 1.314,0 1.598,2.03 3.555,25.461 0.739,8.844 1.591,18.749 1.89,22.013 0.648,7.055 1.981,6.281 -15.154,8.789 -14.505,2.123 -16.153,2.197 -15.56,0.689 z"
   id="path14" /><path
   fill="#634b9c"
   d="m 372.06837,217.5709 c 15.478,-3.188 31.255,-10.148 43.376,-19.135 14.368,-10.653 15.307,-12.925 22.336,-54.016 2.017,-11.793 4.253,-24.588 4.968,-28.434 2.035,-10.948 0.744,-11.979 -13.762,-10.973 -22.449,1.557 -38.44,5.769 -44.342,11.678 -3.932,3.939 -5.209,7.245 -6.835,17.708 -0.805,5.183 -0.814,7.388 -0.034,9.101 0.997,2.187 1.306,2.261 9.484,2.261 4.649,0 8.668,0.347 8.93,0.771 0.261,0.425 -0.248,5.255 -1.132,10.734 -1.873,11.594 -3.057,13.352 -12.047,17.88 -13.627,6.863 -26.846,5.298 -31.258,-3.701 -2.259,-4.604 -2.822,-14.501 -1.545,-27.096 4.763,-46.927998 21.134,-76.280998 44.992,-80.669998 10.234,-1.882 16.674,3.72 16.695,14.525 l 0.005,2.572 5.584,-0.591 c 7.364,-0.779 18.784,-3.064 23.331,-4.668 5.241,-1.85 7.398,-4.289 9.575,-10.829 2.511,-7.547 2.149,-19.265 -0.771,-24.904 -4.123,-7.966 -13.067,-13.394 -25.692,-15.592 -8.585,-1.494 -29.488,-0.558 -37.697,1.691 -24.474,6.7 -45.073,24.477 -57.651,49.749 -11.239,22.587 -21.008,61.327998 -21.85,86.655998 -1.22,36.773 9.412,52.872 37.449,56.702 6.881,0.938 19.573,0.293 27.891,-1.419 z"
   id="path16" /><path
   fill="#0085d0"
   d="m 505.76237,196.1339 c 16.573,-4.922 31.678,-18.776 36.032,-33.049 0.572,-1.877 0.559,-1.876 -6.815,0.311 -14.467,4.29 -26.972,2.597 -32.167,-4.353 -4.006,-5.361 -4.559,-8.754 -3.971,-24.4 1.333,-35.489998 10.404,-67.912998 22.927,-81.964998 7.64,-8.572 18.677,-14.124 28.071,-14.12 9.524,0.003 14.067,5.053 15.842,17.608 l 1.006,7.106 10.379,-2.015 c 24.846,-4.824 29.565,-8.331 29.581,-21.987 0.023,-19.094 -12.086,-33.8029998 -31.154,-37.8449998 -25.84,-5.477 -58.152,5.161 -79.919,26.3089998 -19.705,19.148 -30.282,43.044 -37.656,85.081998 -5.489,31.295 -5.079,51.421 1.318,64.635 4.21,8.698 14.46,16.939 23.789,19.13 5.749,1.349 17.463,1.119 22.737,-0.447 z"
   id="path18" />
</svg>
